<svg xmlns="http://www.w3.org/2000/svg" xmlns:xlink="http://www.w3.org/1999/xlink" fill="none"
  version="1.1" width="160.50830078125" height="156.64544677734375"
  viewBox="0 0 160.50830078125 156.64544677734375">
  <defs>
    <radialGradient cx="0" cy="0" r="1" gradientUnits="userSpaceOnUse" id="master_svg0_1_347"
      gradientTransform="translate(86.69852452990017 14.796082235198128) rotate(92.8815830230863) scale(100.34351882787351 165.70771456468367)">
      <stop offset="0%" stop-color="#FB7299" stop-opacity="1" />
      <stop offset="100%" stop-color="#FB7299" stop-opacity="0.24076704680919647" />
    </radialGradient>
  </defs>
  <g style="opacity:0.699999988079071;">
    <g>
      <g
        transform="matrix(0.9659258127212524,0.2588190734386444,-0.2588190734386444,0.9659258127212524,1.1177792873286307,-8.490374167654636)"
        style="opacity:0.13947173953056335;">
        <g>
          <path
            d="M120.10198314208985,18.5405L142.81028314208984,18.5405C155.02228314208986,18.5405,165.01328314208985,28.615,165.01328314208985,40.9285L165.01328314208985,96.9881C165.01328314208985,109.302,155.02228314208986,119.376,142.81028314208984,119.376L139.50228314208982,119.376C139.50228314208982,123.446,136.22928314208986,126.746,132.19238314208985,126.746C128.15608314208984,126.746,124.88418314208984,123.446,124.88418314208984,119.376L72.93268314208984,119.376C72.93268314208984,123.446,69.66078314208984,126.746,65.62378314208985,126.746C61.58738314208985,126.746,58.31558314208984,123.446,58.31558314208984,119.376L55.00648314208985,119.376C42.79557314208984,119.376,32.804283142089844,109.302,32.804283142089844,96.9881L32.804283142089844,40.9285C32.804283142089844,28.615,42.79557314208984,18.5405,55.00648314208985,18.5405L78.11148314208984,18.5405L67.38468314208984,7.72353C65.63888314208984,5.96238,65.63888314208984,3.08106,67.38468314208984,1.3206C69.13048314208984,-0.440547,71.98848314208985,-0.439853,73.73498314208985,1.3206L90.81068314208984,18.5405L107.40218314208984,18.5405L124.47858314208985,1.3206C126.22438314208985,-0.439853,129.08238314208984,-0.440547,130.82808314208984,1.3206C132.57458314208986,3.08106,132.57388314208984,5.96238,130.82808314208984,7.72353L120.10198314208985,18.5405ZM56.83248314208984,105.008L141.84028314208985,105.008C146.29128314208984,105.008,149.96628314208985,101.354,149.93328314208986,96.8877L149.51128314208984,39.9223C149.47828314208985,35.4566,145.87028314208985,31.8017,141.41928314208985,31.8017L56.41108314208984,31.8017C51.95988314208984,31.8017,48.285683142089844,35.4566,48.31858314208984,39.9223L48.739883142089845,96.8877C48.77278314208984,101.354,52.38188314208985,105.008,56.83248314208984,105.008Z"
            fill-rule="evenodd" fill="url(#master_svg0_1_347)" fill-opacity="1" />
        </g>
      </g>
      <g
        transform="matrix(0.9659258127212524,0.2588190734386444,-0.2588190734386444,0.9659258127212524,15.262840764327962,-8.65958447768935)">
        <g>
          <path
            d="M96.29425495605469,63.99269286499023L124.73525495605469,69.28599286499023L126.83765495605469,58.929862864990234L98.39655495605469,53.636592864990234L96.29425495605469,63.99269286499023ZM68.95985495605468,53.636592864990234L40.51945495605469,58.929862864990234L42.62173495605469,69.28599286499023L71.06285495605468,63.99269286499023L68.95985495605468,53.636592864990234ZM99.05635495605469,83.37669286499023C98.13295495605469,83.37669286499023,97.32005495605469,83.83999286499024,96.83505495605469,84.54399286499023L96.83235495605469,84.54199286499023Q94.37715495605468,88.55839286499022,91.49245495605469,88.55839286499022C86.89285495605469,88.55839286499022,86.56215495605468,84.29569286499023,83.6789549560547,81.02299286499023C80.79495495605468,84.29569286499023,80.46505495605469,88.55839286499022,75.86535495605469,88.55839286499022Q72.98005495605469,88.55839286499022,70.5248549560547,84.54199286499023L70.52275495605468,84.54399286499023C70.03775495605468,83.83999286499024,69.22415495605469,83.37669286499023,68.30075495605469,83.37669286499023C66.81425495605468,83.37669286499023,65.75095495605468,84.62109286499023,65.75095495605468,86.10019286499023C65.75095495605468,86.57639286499023,65.87095495605469,87.01239286499023,66.07125495605469,87.39449286499024L66.06095495605469,87.39989286499024Q69.31475495605468,94.06409286499024,76.32495495605468,94.06409286499024Q80.65505495605468,94.06409286499024,83.6789549560547,90.66169286499024Q86.70215495605468,94.06409286499024,91.03285495605468,94.06409286499024Q98.04245495605468,94.06409286499024,101.29615495605469,87.39989286499024L101.28655495605469,87.39449286499024C101.48615495605469,87.01239286499023,101.60625495605468,86.57639286499023,101.60625495605468,86.10019286499023C101.60625495605468,84.62109286499023,100.54295495605469,83.37669286499023,99.05635495605469,83.37669286499023Z"
            fill-rule="evenodd" fill="#FFEFF4" fill-opacity="1" />
        </g>
      </g>
    </g>
  </g>
</svg>