<svg xmlns="http://www.w3.org/2000/svg" xmlns:xlink="http://www.w3.org/1999/xlink" fill="none"
  version="1.1" width="10" height="10.000001907348633" viewBox="0 0 10 10.000001907348633">
  <g>
    <path
      d="M9.77472,1.31316C10.0751,1.01276,10.0751,0.525706,9.77472,0.225303C9.4743,-0.0751009,8.98727,-0.0751009,8.68686,0.225303L5,3.91215L1.31317,0.225303C1.01276,-0.0751009,0.525696,-0.0751009,0.225311,0.225303C-0.0751038,0.525706,-0.0751038,1.01276,0.225311,1.31316L3.91214,5.00001L0.225311,8.68685C-0.0751038,8.98726,-0.0751038,9.47431,0.225311,9.77471C0.525696,10.0751,1.01276,10.0751,1.31317,9.77471L5,6.08787L8.68686,9.77471C8.98724,10.0751,9.4743,10.0751,9.77469,9.77471C10.0751,9.47431,10.0751,8.98726,9.77469,8.68685L6.08786,5.00001L9.77472,1.31316Z"
      fill-rule="evenodd" fill="#C9CCD0" fill-opacity="1" />
  </g>
</svg>