{
	"asset":{
		"generator":"Khronos glTF Blender I/O v3.5.30",
		"version":"2.0"
	},
	"scene":0,
	"scenes":[
		{
			"name":"Scene",
			"nodes":[
				0
			]
		}
	],
	"nodes":[
		{
			"mesh":0,
			"name":"\u67f1\u4f53"
		}
	],
	"materials":[
		{
			"doubleSided":true,
			"name":"all",
			"pbrMetallicRoughness":{
				"baseColorFactor":[
					1,
					0.8911792039871216,
					0.9721083641052246,
					1
				],
				"metallicFactor":0,
				"roughnessFactor":0.5
			}
		},
		{
			"doubleSided":true,
			"name":"avatar",
			"pbrMetallicRoughness":{
				"baseColorTexture":{
					"index":0
				},
				"metallicFactor":0,
				"roughnessFactor":0.5
			}
		}
	],
	"meshes":[
		{
			"name":"\u67f1\u4f53.001",
			"primitives":[
				{
					"attributes":{
						"POSITION":0,
						"TEXCOORD_0":1,
						"NORMAL":2
					},
					"indices":3,
					"material":0
				},
				{
					"attributes":{
						"POSITION":4,
						"TEXCOORD_0":5,
						"NORMAL":6
					},
					"indices":7,
					"material":1
				}
			]
		}
	],
	"textures":[
		{
			"sampler":0,
			"source":0
		}
	],
	"images":[
		{
			"bufferView":8,
			"mimeType":"image/jpeg",
			"name":"admin"
		}
	],
	"accessors":[
		{
			"bufferView":0,
			"componentType":5126,
			"count":260,
			"max":[
				1,
				0.30000007152557373,
				1
			],
			"min":[
				-1,
				-0.30000007152557373,
				-1
			],
			"type":"VEC3"
		},
		{
			"bufferView":1,
			"componentType":5126,
			"count":260,
			"type":"VEC2"
		},
		{
			"bufferView":2,
			"componentType":5126,
			"count":260,
			"type":"VEC3"
		},
		{
			"bufferView":3,
			"componentType":5123,
			"count":576,
			"type":"SCALAR"
		},
		{
			"bufferView":4,
			"componentType":5126,
			"count":64,
			"max":[
				0.9105708003044128,
				0.30000007152557373,
				0.9105708003044128
			],
			"min":[
				-0.9105708003044128,
				-0.30000007152557373,
				-0.9105708003044128
			],
			"type":"VEC3"
		},
		{
			"bufferView":5,
			"componentType":5126,
			"count":64,
			"type":"VEC2"
		},
		{
			"bufferView":6,
			"componentType":5126,
			"count":64,
			"type":"VEC3"
		},
		{
			"bufferView":7,
			"componentType":5123,
			"count":180,
			"type":"SCALAR"
		}
	],
	"bufferViews":[
		{
			"buffer":0,
			"byteLength":3120,
			"byteOffset":0,
			"target":34962
		},
		{
			"buffer":0,
			"byteLength":2080,
			"byteOffset":3120,
			"target":34962
		},
		{
			"buffer":0,
			"byteLength":3120,
			"byteOffset":5200,
			"target":34962
		},
		{
			"buffer":0,
			"byteLength":1152,
			"byteOffset":8320,
			"target":34963
		},
		{
			"buffer":0,
			"byteLength":768,
			"byteOffset":9472,
			"target":34962
		},
		{
			"buffer":0,
			"byteLength":512,
			"byteOffset":10240,
			"target":34962
		},
		{
			"buffer":0,
			"byteLength":768,
			"byteOffset":10752,
			"target":34962
		},
		{
			"buffer":0,
			"byteLength":360,
			"byteOffset":11520,
			"target":34963
		},
		{
			"buffer":0,
			"byteLength":11253,
			"byteOffset":11880
		}
	],
	"samplers":[
		{
			"magFilter":9729,
			"minFilter":9987
		}
	],
	"buffers":[
		{
			"byteLength":23136,
			"uri":"data:application/octet-stream;base64,"
		}
	]
}
